<?xml version="1.0" standalone="no"?>
<!DOCTYPE svg PUBLIC "-//W3C//DTD SVG 20010904//EN"
 "http://www.w3.org/TR/2001/REC-SVG-20010904/DTD/svg10.dtd">
<svg version="1.0" xmlns="http://www.w3.org/2000/svg"
 width="226.000000pt" height="326.000000pt" viewBox="0 0 226.000000 326.000000"
 preserveAspectRatio="xMidYMid meet">
<metadata>
Created by potrace 1.16, written by Peter Selinger 2001-2019
</metadata>
<g transform="translate(0.000000,326.000000) scale(0.100000,-0.100000)"
fill="#000000" stroke="none">
<path d="M837 3066 c-89 -33 -151 -102 -163 -182 -7 -50 -7 -51 49 -248 l42
-149 -30 -21 c-17 -12 -50 -40 -75 -64 -38 -38 -49 -43 -75 -38 -133 27 -197
14 -262 -50 -73 -74 -75 -86 -71 -596 4 -504 5 -509 91 -638 71 -106 79 -136
87 -310 6 -129 10 -162 28 -196 28 -54 83 -101 129 -111 21 -4 209 -8 418 -7
419 1 431 2 496 61 54 49 69 106 69 259 0 68 5 135 11 151 5 15 66 84 134 153
133 135 159 175 191 300 20 77 23 246 6 335 -14 72 -33 100 -94 140 -25 17
-51 40 -57 53 -7 16 -11 174 -11 495 -1 503 -2 513 -51 576 -13 17 -52 45 -86
62 -53 27 -71 31 -113 27 -64 -6 -135 -50 -175 -107 l-30 -43 -5 -266 c-4
-222 -7 -262 -17 -237 -7 17 -45 140 -85 274 -51 173 -81 258 -102 290 -53 77
-167 118 -249 87z m139 -137 c28 -27 33 -40 184 -558 67 -228 120 -426 118
-440 -3 -24 -8 -26 -63 -31 l-60 -5 -3 -126 c-2 -109 0 -135 18 -183 35 -92
111 -142 231 -151 24 -2 50 -4 57 -4 7 -1 20 -17 28 -37 14 -34 16 -35 62 -32
l47 3 0 90 0 90 -115 5 c-97 5 -121 9 -153 29 -57 35 -83 102 -66 166 l10 35
222 0 c202 0 225 -2 254 -20 17 -10 37 -29 43 -40 16 -31 13 -272 -4 -337 -21
-77 -42 -105 -181 -243 -70 -69 -133 -139 -141 -157 -10 -23 -14 -77 -14 -188
l0 -155 -29 -32 -29 -33 -366 -3 c-388 -3 -436 1 -458 41 -7 13 -15 84 -19
177 -7 178 -21 227 -96 338 -25 37 -52 85 -60 107 -23 62 -33 162 -26 253 l6
83 31 -8 c46 -12 129 -8 165 7 32 13 33 13 77 -38 24 -27 63 -60 87 -71 104
-50 243 -3 300 102 21 41 22 53 25 365 3 341 -2 401 -40 454 -11 17 -45 45
-74 64 -53 34 -53 35 -83 132 -63 208 -75 261 -65 300 19 76 122 106 180 51z
m595 5 c58 -30 59 -38 59 -543 0 -404 -2 -461 -16 -475 -11 -12 -36 -16 -97
-16 -45 0 -88 4 -94 8 -10 6 -13 118 -13 487 -1 454 0 481 18 505 37 49 90 62
143 34z m-671 -599 c37 -34 41 -78 38 -397 -3 -293 -4 -308 -24 -335 -23 -31
-74 -52 -109 -46 -12 3 -35 15 -51 28 l-29 23 -3 333 c-3 358 -1 378 47 405
33 18 105 12 131 -11z m-382 -76 c18 -6 41 -26 54 -47 21 -34 23 -51 27 -210
4 -219 -1 -252 -43 -297 -27 -28 -41 -35 -72 -35 -22 0 -50 7 -62 16 -47 33
-52 59 -52 282 0 201 1 210 23 243 21 32 59 59 83 59 6 0 25 -5 42 -11z"/>
<path d="M1083 1297 c-70 -74 -105 -133 -123 -209 -11 -51 -13 -168 -2 -185 9
-14 87 -21 99 -9 4 4 11 49 14 100 7 107 35 171 103 235 74 68 74 67 36 106
-19 19 -39 35 -46 35 -6 0 -43 -33 -81 -73z"/>
<path d="M670 343 c-14 -3 -31 -10 -37 -15 -20 -16 -15 -63 8 -84 20 -18 41
-19 359 -19 318 0 339 1 359 19 27 24 27 58 0 82 -20 18 -41 19 -343 20 -176
1 -332 -1 -346 -3z"/>
</g>
</svg>
