<?xml version="1.0" standalone="no"?>
<!DOCTYPE svg PUBLIC "-//W3C//DTD SVG 20010904//EN"
 "http://www.w3.org/TR/2001/REC-SVG-20010904/DTD/svg10.dtd">
<svg version="1.0" xmlns="http://www.w3.org/2000/svg"
 width="240.000000pt" height="240.000000pt" viewBox="0 0 240.000000 240.000000"
 preserveAspectRatio="xMidYMid meet">
<metadata>
Created by potrace 1.16, written by Peter Selinger 2001-2019
</metadata>
<g transform="translate(0.000000,240.000000) scale(0.100000,-0.100000)"
fill="#000000" stroke="none">
<path d="M402 2064 c-19 -10 -44 -33 -58 -53 l-24 -36 0 -288 c0 -320 3 -336
64 -380 44 -31 148 -31 192 0 61 44 64 61 64 373 0 312 -3 329 -63 372 -41 29
-129 35 -175 12z"/>
<path d="M882 2064 c-19 -10 -44 -33 -58 -53 l-24 -36 0 -528 c0 -585 -1 -573
64 -620 24 -17 45 -22 96 -22 51 0 72 5 96 22 65 47 64 36 64 613 0 576 1 567
-63 612 -41 29 -129 35 -175 12z"/>
<path d="M1362 2064 c-99 -51 -111 -211 -19 -276 41 -30 123 -36 171 -13 103
49 117 211 23 277 -41 29 -129 35 -175 12z"/>
<path d="M1842 2064 c-19 -10 -44 -33 -58 -53 l-24 -36 0 -768 c0 -850 -3
-812 64 -860 44 -31 148 -31 192 0 67 48 64 11 64 853 0 842 3 805 -63 852
-41 29 -129 35 -175 12z"/>
<path d="M1362 1584 c-19 -10 -44 -33 -58 -53 l-24 -36 0 -528 c0 -585 -1
-573 64 -620 44 -31 148 -31 192 0 65 47 64 36 64 613 0 576 1 567 -63 612
-41 29 -129 35 -175 12z"/>
<path d="M402 1104 c-19 -10 -44 -33 -58 -53 l-24 -36 0 -288 c0 -320 3 -336
64 -380 44 -31 148 -31 192 0 61 44 64 61 64 373 0 312 -3 329 -63 372 -41 29
-129 35 -175 12z"/>
<path d="M882 624 c-99 -51 -111 -211 -19 -276 41 -30 123 -36 171 -13 103 49
117 211 23 277 -41 29 -129 35 -175 12z"/>
</g>
</svg>
