<?xml version="1.0" standalone="no"?>
<!DOCTYPE svg PUBLIC "-//W3C//DTD SVG 20010904//EN"
 "http://www.w3.org/TR/2001/REC-SVG-20010904/DTD/svg10.dtd">
<svg version="1.0" xmlns="http://www.w3.org/2000/svg"
 width="230.000000pt" height="310.000000pt" viewBox="0 0 230.000000 310.000000"
 preserveAspectRatio="xMidYMid meet">
<metadata>
Created by potrace 1.16, written by Peter Selinger 2001-2019
</metadata>
<g transform="translate(0.000000,310.000000) scale(0.100000,-0.100000)"
fill="#000000" stroke="none">
<path d="M1110 2941 c-79 -25 -141 -83 -161 -150 -12 -40 -12 -40 -40 -26 -41
22 -132 19 -178 -4 -42 -22 -97 -80 -112 -118 -5 -13 -9 -56 -9 -95 0 -63 -2
-69 -17 -63 -97 42 -194 23 -261 -49 -22 -24 -45 -61 -51 -82 -14 -52 -15
-975 -1 -1064 12 -75 60 -182 122 -272 l43 -63 5 -171 c5 -160 7 -173 29 -206
13 -19 40 -46 59 -59 l36 -24 408 -3 c392 -3 409 -2 447 18 44 22 82 68 100
119 6 19 11 96 11 174 l0 140 268 274 c147 151 302 312 344 358 l78 83 -80 78
c-100 98 -136 118 -220 122 -79 5 -139 -10 -178 -43 -17 -14 -33 -25 -36 -25
-3 0 -6 194 -6 430 0 469 0 473 -58 533 -60 64 -166 86 -247 52 l-35 -14 -19
37 c-34 66 -93 106 -171 116 -25 3 -56 1 -70 -3z m122 -130 l33 -29 5 -509 5
-508 53 -3 52 -3 0 436 c0 478 0 479 60 510 38 20 75 19 111 -2 59 -35 59 -36
59 -555 l0 -474 -60 -59 -60 -59 32 -33 c18 -18 37 -33 42 -33 6 0 67 58 136
129 119 123 127 130 173 136 29 5 64 3 85 -4 38 -11 126 -86 120 -101 -2 -5
-148 -157 -325 -338 l-323 -330 0 -167 0 -167 -29 -29 -29 -29 -371 0 c-266 0
-377 3 -396 12 -47 21 -55 52 -55 225 l0 157 -60 91 c-114 173 -105 113 -108
714 -2 387 0 532 9 553 30 72 150 78 196 9 16 -23 18 -58 21 -308 l3 -283 50
0 49 0 0 415 c0 462 0 464 65 491 44 18 59 18 100 -2 64 -30 65 -36 65 -493
l0 -411 50 0 49 0 3 503 c3 542 2 526 57 560 42 27 96 22 133 -12z"/>
<path d="M1077 1291 c-101 -104 -119 -144 -125 -284 l-5 -108 54 3 54 3 5 100
c6 118 17 142 103 233 l61 63 -35 35 -35 35 -77 -80z"/>
<path d="M648 359 c-26 -15 -23 -64 4 -83 19 -14 68 -16 335 -16 171 0 323 4
336 9 33 13 43 46 23 76 l-16 25 -333 0 c-207 0 -339 -4 -349 -11z"/>
</g>
</svg>
