<?xml version="1.0" standalone="no"?>
<!DOCTYPE svg PUBLIC "-//W3C//DTD SVG 20010904//EN"
 "http://www.w3.org/TR/2001/REC-SVG-20010904/DTD/svg10.dtd">
<svg version="1.0" xmlns="http://www.w3.org/2000/svg"
 width="191.000000pt" height="255.000000pt" viewBox="0 0 191.000000 255.000000"
 preserveAspectRatio="xMidYMid meet">
<metadata>
Created by potrace 1.16, written by Peter Selinger 2001-2019
</metadata>
<g transform="translate(0.000000,255.000000) scale(0.100000,-0.100000)"
fill="#000000" stroke="none">
<path d="M633 2306 c-34 -16 -62 -39 -80 -65 -19 -27 -33 -38 -43 -34 -69 28
-104 35 -145 29 -65 -10 -134 -61 -165 -121 l-25 -49 0 -431 c0 -376 2 -438
17 -492 21 -75 56 -146 112 -228 l41 -60 5 -172 c5 -171 5 -171 35 -214 17
-23 50 -53 75 -66 l44 -24 402 3 402 3 44 30 c25 18 52 49 66 75 20 40 22 59
22 194 l0 150 138 140 c122 124 142 149 168 211 28 69 29 73 29 257 l0 186
-30 44 c-18 24 -50 54 -77 68 l-46 24 -4 161 c-4 169 -11 197 -62 253 -59 66
-185 88 -256 47 l-34 -21 -31 40 c-73 95 -217 114 -306 39 l-30 -25 -37 25
c-78 54 -147 61 -229 23z m142 -90 c63 -27 65 -39 65 -385 0 -328 -2 -347 -47
-376 -32 -21 -97 -21 -129 0 -50 33 -54 59 -54 377 0 329 3 347 70 380 42 22
51 22 95 4z m330 0 c67 -28 75 -57 75 -263 l0 -183 -66 0 -65 0 4 -147 c2 -82
7 -158 11 -170 8 -21 6 -22 -25 -13 -19 5 -46 23 -61 40 l-28 30 0 316 c0 348
1 357 62 387 41 20 50 21 93 3z m371 -110 l34 -34 0 -151 0 -151 -115 0 -115
0 0 134 c0 151 10 190 54 217 50 31 102 25 142 -15z m-1026 9 c55 -28 60 -53
60 -277 0 -141 -4 -210 -13 -227 -20 -40 -64 -66 -109 -65 -35 1 -48 8 -75 38
l-33 36 0 210 c0 226 5 251 52 284 28 20 81 20 118 1z m1182 -475 c44 -34 51
-68 46 -218 -6 -193 -17 -215 -198 -397 l-139 -140 -3 -172 -3 -173 -28 -27
-27 -28 -365 -3 c-305 -2 -370 0 -400 12 -56 24 -65 58 -65 238 l0 153 -60 90
c-92 137 -103 173 -108 347 l-4 148 36 -15 c49 -21 124 -19 168 4 l37 18 29
-47 c65 -105 219 -131 313 -53 25 22 34 24 48 15 80 -59 133 -72 215 -52 37 8
58 9 79 1 16 -6 60 -11 98 -11 l69 0 0 -50 0 -50 50 0 50 0 0 100 0 100 -105
0 c-172 0 -208 26 -214 151 l-3 79 230 0 c213 0 231 -1 254 -20z"/>
<path d="M983 1188 c-101 -103 -123 -153 -123 -285 l0 -103 49 0 49 0 4 98 c4
115 22 153 112 242 l56 54 -32 33 c-18 18 -35 33 -38 33 -3 0 -38 -33 -77 -72z"/>
<path d="M526 239 c-14 -21 -12 -42 7 -66 7 -10 90 -13 353 -13 298 0 345 2
358 16 9 8 16 24 16 34 0 10 -7 26 -16 34 -13 14 -60 16 -359 16 -339 0 -344
0 -359 -21z"/>
</g>
</svg>
